<mxfile host="app.diagrams.net" agent="Mozilla/5.0 (Windows NT 10.0; Win64; x64) AppleWebKit/537.36 (KHTML, like Gecko) Chrome/135.0.0.0 Safari/537.36" version="26.2.6">
  <diagram name="Page-1" id="XjCpb390zubgaoJemEW_">
    <mxGraphModel dx="2492" dy="712" grid="1" gridSize="10" guides="1" tooltips="1" connect="1" arrows="1" fold="1" page="1" pageScale="1" pageWidth="1100" pageHeight="850" math="0" shadow="0">
      <root>
        <mxCell id="0" />
        <mxCell id="1" parent="0" />
        <mxCell id="NXqy39h1b81ChxN3Mg2q-48" value="" style="fontSize=12;html=1;endArrow=ERoneToMany;rounded=0;exitX=0.5;exitY=0;exitDx=0;exitDy=0;movable=1;resizable=1;rotatable=1;deletable=1;editable=1;locked=0;connectable=1;elbow=vertical;entryX=0.25;entryY=1;entryDx=0;entryDy=0;" edge="1" parent="1" source="NXqy39h1b81ChxN3Mg2q-46" target="3sptjTlRXnZytQL2yX10-6">
          <mxGeometry width="100" height="100" relative="1" as="geometry">
            <mxPoint x="-470" y="340" as="sourcePoint" />
            <mxPoint x="-570" y="170" as="targetPoint" />
          </mxGeometry>
        </mxCell>
        <mxCell id="3sptjTlRXnZytQL2yX10-6" value="" style="rounded=0;whiteSpace=wrap;html=1;" parent="1" vertex="1">
          <mxGeometry x="-720" y="120" width="120" height="60" as="geometry" />
        </mxCell>
        <mxCell id="3sptjTlRXnZytQL2yX10-8" value="Student" style="text;html=1;align=center;verticalAlign=middle;whiteSpace=wrap;rounded=0;" parent="1" vertex="1">
          <mxGeometry x="-690" y="135" width="60" height="30" as="geometry" />
        </mxCell>
        <mxCell id="3sptjTlRXnZytQL2yX10-9" value="" style="ellipse;whiteSpace=wrap;html=1;" parent="1" vertex="1">
          <mxGeometry x="-610" y="60" width="60" height="30" as="geometry" />
        </mxCell>
        <mxCell id="3sptjTlRXnZytQL2yX10-16" style="edgeStyle=none;rounded=0;orthogonalLoop=1;jettySize=auto;html=1;exitX=0;exitY=1;exitDx=0;exitDy=0;" parent="1" source="3sptjTlRXnZytQL2yX10-11" target="3sptjTlRXnZytQL2yX10-11" edge="1">
          <mxGeometry relative="1" as="geometry" />
        </mxCell>
        <mxCell id="3sptjTlRXnZytQL2yX10-21" value="" style="endArrow=none;html=1;rounded=0;" parent="1" source="3sptjTlRXnZytQL2yX10-6" edge="1">
          <mxGeometry width="50" height="50" relative="1" as="geometry">
            <mxPoint x="-610" y="110" as="sourcePoint" />
            <mxPoint x="-600" y="90" as="targetPoint" />
            <Array as="points" />
          </mxGeometry>
        </mxCell>
        <mxCell id="3sptjTlRXnZytQL2yX10-22" value="" style="ellipse;whiteSpace=wrap;html=1;" parent="1" vertex="1">
          <mxGeometry x="-680" y="70" width="60" height="30" as="geometry" />
        </mxCell>
        <mxCell id="3sptjTlRXnZytQL2yX10-23" value="name" style="text;html=1;align=center;verticalAlign=middle;whiteSpace=wrap;rounded=0;" parent="1" vertex="1">
          <mxGeometry x="-675" y="75" width="50" height="20" as="geometry" />
        </mxCell>
        <mxCell id="3sptjTlRXnZytQL2yX10-24" style="edgeStyle=none;rounded=0;orthogonalLoop=1;jettySize=auto;html=1;exitX=0;exitY=1;exitDx=0;exitDy=0;" parent="1" source="3sptjTlRXnZytQL2yX10-23" target="3sptjTlRXnZytQL2yX10-23" edge="1">
          <mxGeometry relative="1" as="geometry" />
        </mxCell>
        <mxCell id="3sptjTlRXnZytQL2yX10-26" value="f_name" style="text;html=1;align=center;verticalAlign=middle;whiteSpace=wrap;rounded=0;" parent="1" vertex="1">
          <mxGeometry x="-710" y="30" width="60" height="30" as="geometry" />
        </mxCell>
        <mxCell id="3sptjTlRXnZytQL2yX10-27" value="L_name" style="text;html=1;align=center;verticalAlign=middle;whiteSpace=wrap;rounded=0;" parent="1" vertex="1">
          <mxGeometry x="-650" y="30" width="60" height="30" as="geometry" />
        </mxCell>
        <mxCell id="3sptjTlRXnZytQL2yX10-29" value="" style="ellipse;whiteSpace=wrap;html=1;opacity=50;" parent="1" vertex="1">
          <mxGeometry x="-650" y="30" width="50" height="30" as="geometry" />
        </mxCell>
        <mxCell id="3sptjTlRXnZytQL2yX10-30" value="" style="ellipse;whiteSpace=wrap;html=1;opacity=40;" parent="1" vertex="1">
          <mxGeometry x="-705" y="30" width="50" height="30" as="geometry" />
        </mxCell>
        <mxCell id="3sptjTlRXnZytQL2yX10-36" value="" style="endArrow=none;html=1;rounded=0;" parent="1" edge="1">
          <mxGeometry width="50" height="50" relative="1" as="geometry">
            <mxPoint x="-640" y="70" as="sourcePoint" />
            <mxPoint x="-630" y="60" as="targetPoint" />
          </mxGeometry>
        </mxCell>
        <mxCell id="3sptjTlRXnZytQL2yX10-37" value="" style="endArrow=none;html=1;rounded=0;exitX=0.5;exitY=0;exitDx=0;exitDy=0;" parent="1" source="3sptjTlRXnZytQL2yX10-22" edge="1">
          <mxGeometry width="50" height="50" relative="1" as="geometry">
            <mxPoint x="-686" y="70" as="sourcePoint" />
            <mxPoint x="-674" y="60" as="targetPoint" />
          </mxGeometry>
        </mxCell>
        <mxCell id="3sptjTlRXnZytQL2yX10-11" value="&lt;u&gt;id&lt;/u&gt;" style="text;html=1;align=center;verticalAlign=middle;whiteSpace=wrap;rounded=0;" parent="1" vertex="1">
          <mxGeometry x="-610" y="60" width="60" height="30" as="geometry" />
        </mxCell>
        <mxCell id="3sptjTlRXnZytQL2yX10-39" value="" style="endArrow=none;html=1;rounded=0;exitX=0.583;exitY=0;exitDx=0;exitDy=0;exitPerimeter=0;" parent="1" source="3sptjTlRXnZytQL2yX10-6" edge="1">
          <mxGeometry width="50" height="50" relative="1" as="geometry">
            <mxPoint x="-660" y="110" as="sourcePoint" />
            <mxPoint x="-650" y="100" as="targetPoint" />
          </mxGeometry>
        </mxCell>
        <mxCell id="3sptjTlRXnZytQL2yX10-40" value="" style="ellipse;whiteSpace=wrap;html=1;" parent="1" vertex="1">
          <mxGeometry x="-740" y="70" width="50" height="20" as="geometry" />
        </mxCell>
        <mxCell id="3sptjTlRXnZytQL2yX10-41" value="email" style="text;html=1;align=center;verticalAlign=middle;whiteSpace=wrap;rounded=0;" parent="1" vertex="1">
          <mxGeometry x="-737.5" y="72.5" width="45" height="15" as="geometry" />
        </mxCell>
        <mxCell id="3sptjTlRXnZytQL2yX10-44" value="" style="endArrow=none;html=1;rounded=0;exitX=0.25;exitY=0;exitDx=0;exitDy=0;entryX=0.5;entryY=1;entryDx=0;entryDy=0;" parent="1" source="3sptjTlRXnZytQL2yX10-6" target="3sptjTlRXnZytQL2yX10-40" edge="1">
          <mxGeometry width="50" height="50" relative="1" as="geometry">
            <mxPoint x="-740" y="130" as="sourcePoint" />
            <mxPoint x="-690" y="80" as="targetPoint" />
          </mxGeometry>
        </mxCell>
        <mxCell id="3sptjTlRXnZytQL2yX10-47" value="" style="ellipse;whiteSpace=wrap;html=1;" parent="1" vertex="1">
          <mxGeometry x="-790" y="135" width="50" height="20" as="geometry" />
        </mxCell>
        <mxCell id="3sptjTlRXnZytQL2yX10-48" value="address" style="text;html=1;align=center;verticalAlign=middle;whiteSpace=wrap;rounded=0;" parent="1" vertex="1">
          <mxGeometry x="-781.25" y="140" width="32.5" height="10" as="geometry" />
        </mxCell>
        <mxCell id="3sptjTlRXnZytQL2yX10-49" value="" style="endArrow=none;html=1;rounded=0;exitX=0;exitY=0.5;exitDx=0;exitDy=0;entryX=1;entryY=0.5;entryDx=0;entryDy=0;" parent="1" source="3sptjTlRXnZytQL2yX10-6" target="3sptjTlRXnZytQL2yX10-47" edge="1">
          <mxGeometry width="50" height="50" relative="1" as="geometry">
            <mxPoint x="-790" y="200" as="sourcePoint" />
            <mxPoint x="-740" y="150" as="targetPoint" />
          </mxGeometry>
        </mxCell>
        <mxCell id="3sptjTlRXnZytQL2yX10-50" value="" style="ellipse;whiteSpace=wrap;html=1;" parent="1" vertex="1">
          <mxGeometry x="-840" y="145" width="40" height="25" as="geometry" />
        </mxCell>
        <mxCell id="3sptjTlRXnZytQL2yX10-51" value="faculty" style="text;html=1;align=center;verticalAlign=middle;whiteSpace=wrap;rounded=0;" parent="1" vertex="1">
          <mxGeometry x="-832.5" y="150" width="25" height="15" as="geometry" />
        </mxCell>
        <mxCell id="3sptjTlRXnZytQL2yX10-52" value="" style="endArrow=none;html=1;rounded=0;entryX=-0.01;entryY=0.643;entryDx=0;entryDy=0;entryPerimeter=0;exitX=1;exitY=0.5;exitDx=0;exitDy=0;" parent="1" source="3sptjTlRXnZytQL2yX10-50" target="3sptjTlRXnZytQL2yX10-6" edge="1">
          <mxGeometry width="50" height="50" relative="1" as="geometry">
            <mxPoint x="-827.5" y="220" as="sourcePoint" />
            <mxPoint x="-777.5" y="170" as="targetPoint" />
          </mxGeometry>
        </mxCell>
        <mxCell id="3sptjTlRXnZytQL2yX10-53" value="" style="ellipse;whiteSpace=wrap;html=1;" parent="1" vertex="1">
          <mxGeometry x="-798.75" y="165" width="50" height="20" as="geometry" />
        </mxCell>
        <mxCell id="3sptjTlRXnZytQL2yX10-54" value="major" style="text;html=1;align=center;verticalAlign=middle;whiteSpace=wrap;rounded=0;" parent="1" vertex="1">
          <mxGeometry x="-785" y="170" width="22.5" height="10" as="geometry" />
        </mxCell>
        <mxCell id="3sptjTlRXnZytQL2yX10-55" value="" style="endArrow=none;html=1;rounded=0;exitX=1;exitY=0.5;exitDx=0;exitDy=0;" parent="1" source="3sptjTlRXnZytQL2yX10-53" edge="1">
          <mxGeometry width="50" height="50" relative="1" as="geometry">
            <mxPoint x="-770" y="215" as="sourcePoint" />
            <mxPoint x="-720" y="165" as="targetPoint" />
          </mxGeometry>
        </mxCell>
        <mxCell id="3sptjTlRXnZytQL2yX10-56" value="" style="ellipse;whiteSpace=wrap;html=1;" parent="1" vertex="1">
          <mxGeometry x="-850" y="190" width="100" height="20" as="geometry" />
        </mxCell>
        <mxCell id="3sptjTlRXnZytQL2yX10-57" value="acquired_hours" style="text;html=1;align=center;verticalAlign=middle;whiteSpace=wrap;rounded=0;" parent="1" vertex="1">
          <mxGeometry x="-807.5" y="197.5" width="12.5" height="5" as="geometry" />
        </mxCell>
        <mxCell id="3sptjTlRXnZytQL2yX10-58" value="" style="endArrow=none;html=1;rounded=0;" parent="1" edge="1">
          <mxGeometry width="50" height="50" relative="1" as="geometry">
            <mxPoint x="-750" y="200" as="sourcePoint" />
            <mxPoint x="-720" y="170" as="targetPoint" />
          </mxGeometry>
        </mxCell>
        <mxCell id="3sptjTlRXnZytQL2yX10-59" value="" style="ellipse;whiteSpace=wrap;html=1;" parent="1" vertex="1">
          <mxGeometry x="-841.87" y="220" width="91.87" height="20" as="geometry" />
        </mxCell>
        <mxCell id="3sptjTlRXnZytQL2yX10-60" value="assigned_hours" style="text;html=1;align=center;verticalAlign=middle;whiteSpace=wrap;rounded=0;" parent="1" vertex="1">
          <mxGeometry x="-815.93" y="215" width="40" height="30" as="geometry" />
        </mxCell>
        <mxCell id="3sptjTlRXnZytQL2yX10-62" value="" style="endArrow=none;html=1;rounded=0;entryX=0;entryY=1;entryDx=0;entryDy=0;" parent="1" target="3sptjTlRXnZytQL2yX10-6" edge="1">
          <mxGeometry width="50" height="50" relative="1" as="geometry">
            <mxPoint x="-750" y="230" as="sourcePoint" />
            <mxPoint x="-700" y="180" as="targetPoint" />
          </mxGeometry>
        </mxCell>
        <mxCell id="3sptjTlRXnZytQL2yX10-63" value="" style="ellipse;whiteSpace=wrap;html=1;" parent="1" vertex="1">
          <mxGeometry x="-795" y="260" width="60" height="30" as="geometry" />
        </mxCell>
        <mxCell id="3sptjTlRXnZytQL2yX10-64" value="semester" style="text;html=1;align=center;verticalAlign=middle;whiteSpace=wrap;rounded=0;" parent="1" vertex="1">
          <mxGeometry x="-787.5" y="267.5" width="45" height="15" as="geometry" />
        </mxCell>
        <mxCell id="3sptjTlRXnZytQL2yX10-65" value="" style="endArrow=none;html=1;rounded=0;exitX=0.5;exitY=0;exitDx=0;exitDy=0;entryX=0.112;entryY=1.026;entryDx=0;entryDy=0;entryPerimeter=0;" parent="1" source="3sptjTlRXnZytQL2yX10-63" target="3sptjTlRXnZytQL2yX10-6" edge="1">
          <mxGeometry width="50" height="50" relative="1" as="geometry">
            <mxPoint x="-720" y="230" as="sourcePoint" />
            <mxPoint x="-670" y="180" as="targetPoint" />
          </mxGeometry>
        </mxCell>
        <mxCell id="3sptjTlRXnZytQL2yX10-70" value="mobile_num" style="ellipse;whiteSpace=wrap;html=1;align=center;dashed=1;" parent="1" vertex="1">
          <mxGeometry x="-815" y="30" width="75" height="21.25" as="geometry" />
        </mxCell>
        <mxCell id="3sptjTlRXnZytQL2yX10-71" value="" style="endArrow=none;html=1;rounded=0;exitX=0.5;exitY=1;exitDx=0;exitDy=0;entryX=0.067;entryY=-0.022;entryDx=0;entryDy=0;entryPerimeter=0;" parent="1" source="3sptjTlRXnZytQL2yX10-70" target="3sptjTlRXnZytQL2yX10-6" edge="1">
          <mxGeometry width="50" height="50" relative="1" as="geometry">
            <mxPoint x="-620" y="220" as="sourcePoint" />
            <mxPoint x="-570" y="170" as="targetPoint" />
          </mxGeometry>
        </mxCell>
        <mxCell id="NXqy39h1b81ChxN3Mg2q-1" value="course" style="rounded=1;arcSize=10;whiteSpace=wrap;html=1;align=center;" vertex="1" parent="1">
          <mxGeometry x="-205" y="125" width="120" height="50" as="geometry" />
        </mxCell>
        <mxCell id="NXqy39h1b81ChxN3Mg2q-2" value="&lt;u&gt;c_id&lt;/u&gt;" style="ellipse;whiteSpace=wrap;html=1;align=center;" vertex="1" parent="1">
          <mxGeometry x="-250" y="60" width="60" height="20" as="geometry" />
        </mxCell>
        <mxCell id="NXqy39h1b81ChxN3Mg2q-4" value="" style="endArrow=none;html=1;rounded=0;exitX=0.25;exitY=0;exitDx=0;exitDy=0;" edge="1" parent="1" source="NXqy39h1b81ChxN3Mg2q-1" target="NXqy39h1b81ChxN3Mg2q-2">
          <mxGeometry width="50" height="50" relative="1" as="geometry">
            <mxPoint x="-270" y="135" as="sourcePoint" />
            <mxPoint x="-220" y="85" as="targetPoint" />
          </mxGeometry>
        </mxCell>
        <mxCell id="NXqy39h1b81ChxN3Mg2q-5" value="name" style="ellipse;whiteSpace=wrap;html=1;align=center;" vertex="1" parent="1">
          <mxGeometry x="-230" y="20" width="50" height="17.5" as="geometry" />
        </mxCell>
        <mxCell id="NXqy39h1b81ChxN3Mg2q-6" value="major" style="ellipse;whiteSpace=wrap;html=1;align=center;" vertex="1" parent="1">
          <mxGeometry x="-180" y="60" width="50" height="20" as="geometry" />
        </mxCell>
        <mxCell id="NXqy39h1b81ChxN3Mg2q-7" value="credit hours" style="ellipse;whiteSpace=wrap;html=1;align=center;" vertex="1" parent="1">
          <mxGeometry x="-150" y="30" width="70" height="20" as="geometry" />
        </mxCell>
        <mxCell id="NXqy39h1b81ChxN3Mg2q-9" value="is_offered" style="ellipse;whiteSpace=wrap;html=1;align=center;" vertex="1" parent="1">
          <mxGeometry x="-110" y="70" width="60" height="20" as="geometry" />
        </mxCell>
        <mxCell id="NXqy39h1b81ChxN3Mg2q-10" value="" style="endArrow=none;html=1;rounded=0;exitX=0.35;exitY=-0.009;exitDx=0;exitDy=0;exitPerimeter=0;" edge="1" parent="1" source="NXqy39h1b81ChxN3Mg2q-1">
          <mxGeometry width="50" height="50" relative="1" as="geometry">
            <mxPoint x="-230" y="97.5" as="sourcePoint" />
            <mxPoint x="-200" y="40" as="targetPoint" />
          </mxGeometry>
        </mxCell>
        <mxCell id="NXqy39h1b81ChxN3Mg2q-11" value="" style="endArrow=none;html=1;rounded=0;exitX=0.5;exitY=0;exitDx=0;exitDy=0;" edge="1" parent="1" source="NXqy39h1b81ChxN3Mg2q-1">
          <mxGeometry width="50" height="50" relative="1" as="geometry">
            <mxPoint x="-210" y="130" as="sourcePoint" />
            <mxPoint x="-160" y="80" as="targetPoint" />
          </mxGeometry>
        </mxCell>
        <mxCell id="NXqy39h1b81ChxN3Mg2q-12" value="" style="endArrow=none;html=1;rounded=0;exitX=0.75;exitY=0;exitDx=0;exitDy=0;" edge="1" parent="1" source="NXqy39h1b81ChxN3Mg2q-1">
          <mxGeometry width="50" height="50" relative="1" as="geometry">
            <mxPoint x="-170" y="100" as="sourcePoint" />
            <mxPoint x="-120" y="50" as="targetPoint" />
          </mxGeometry>
        </mxCell>
        <mxCell id="NXqy39h1b81ChxN3Mg2q-13" value="" style="endArrow=none;html=1;rounded=0;exitX=0.958;exitY=0.015;exitDx=0;exitDy=0;exitPerimeter=0;" edge="1" parent="1" source="NXqy39h1b81ChxN3Mg2q-1">
          <mxGeometry width="50" height="50" relative="1" as="geometry">
            <mxPoint x="-110" y="120" as="sourcePoint" />
            <mxPoint x="-80" y="90" as="targetPoint" />
          </mxGeometry>
        </mxCell>
        <mxCell id="NXqy39h1b81ChxN3Mg2q-14" value="optional" style="ellipse;whiteSpace=wrap;html=1;align=center;" vertex="1" parent="1">
          <mxGeometry x="-70" y="110" width="50" height="20" as="geometry" />
        </mxCell>
        <mxCell id="NXqy39h1b81ChxN3Mg2q-15" value="" style="endArrow=none;html=1;rounded=0;exitX=1;exitY=0.25;exitDx=0;exitDy=0;" edge="1" parent="1" source="NXqy39h1b81ChxN3Mg2q-1">
          <mxGeometry width="50" height="50" relative="1" as="geometry">
            <mxPoint x="-120" y="170" as="sourcePoint" />
            <mxPoint x="-70" y="120" as="targetPoint" />
          </mxGeometry>
        </mxCell>
        <mxCell id="NXqy39h1b81ChxN3Mg2q-16" value="enrolled" style="shape=rhombus;perimeter=rhombusPerimeter;whiteSpace=wrap;html=1;align=center;" vertex="1" parent="1">
          <mxGeometry x="-480" y="135" width="120" height="60" as="geometry" />
        </mxCell>
        <mxCell id="NXqy39h1b81ChxN3Mg2q-18" value="" style="edgeStyle=entityRelationEdgeStyle;fontSize=12;html=1;endArrow=ERoneToMany;rounded=0;exitX=0;exitY=0.5;exitDx=0;exitDy=0;entryX=1;entryY=0.75;entryDx=0;entryDy=0;" edge="1" parent="1" source="NXqy39h1b81ChxN3Mg2q-16" target="3sptjTlRXnZytQL2yX10-6">
          <mxGeometry width="100" height="100" relative="1" as="geometry">
            <mxPoint x="-420" y="210" as="sourcePoint" />
            <mxPoint x="-320" y="110" as="targetPoint" />
          </mxGeometry>
        </mxCell>
        <mxCell id="NXqy39h1b81ChxN3Mg2q-19" value="" style="edgeStyle=entityRelationEdgeStyle;fontSize=12;html=1;endArrow=ERoneToMany;rounded=0;exitX=1;exitY=0.5;exitDx=0;exitDy=0;entryX=0;entryY=0.75;entryDx=0;entryDy=0;" edge="1" parent="1" source="NXqy39h1b81ChxN3Mg2q-16" target="NXqy39h1b81ChxN3Mg2q-1">
          <mxGeometry width="100" height="100" relative="1" as="geometry">
            <mxPoint x="-420" y="210" as="sourcePoint" />
            <mxPoint x="-320" y="110" as="targetPoint" />
          </mxGeometry>
        </mxCell>
        <mxCell id="NXqy39h1b81ChxN3Mg2q-20" value="semester" style="whiteSpace=wrap;html=1;align=center;" vertex="1" parent="1">
          <mxGeometry x="-202.5" y="410" width="115" height="40" as="geometry" />
        </mxCell>
        <mxCell id="NXqy39h1b81ChxN3Mg2q-21" value="&lt;u&gt;sem_id&lt;/u&gt;" style="ellipse;whiteSpace=wrap;html=1;align=center;" vertex="1" parent="1">
          <mxGeometry x="-40" y="480" width="40" height="20" as="geometry" />
        </mxCell>
        <mxCell id="NXqy39h1b81ChxN3Mg2q-22" value="s_date" style="ellipse;whiteSpace=wrap;html=1;align=center;" vertex="1" parent="1">
          <mxGeometry x="-20" y="450" width="40" height="20" as="geometry" />
        </mxCell>
        <mxCell id="NXqy39h1b81ChxN3Mg2q-23" value="e_date" style="ellipse;whiteSpace=wrap;html=1;align=center;" vertex="1" parent="1">
          <mxGeometry x="-20" y="410" width="40" height="20" as="geometry" />
        </mxCell>
        <mxCell id="NXqy39h1b81ChxN3Mg2q-25" value="" style="endArrow=none;html=1;rounded=0;entryX=1;entryY=1;entryDx=0;entryDy=0;exitX=0.5;exitY=0;exitDx=0;exitDy=0;" edge="1" parent="1" source="NXqy39h1b81ChxN3Mg2q-21" target="NXqy39h1b81ChxN3Mg2q-20">
          <mxGeometry width="50" height="50" relative="1" as="geometry">
            <mxPoint x="-210" y="460" as="sourcePoint" />
            <mxPoint x="-160" y="410" as="targetPoint" />
          </mxGeometry>
        </mxCell>
        <mxCell id="NXqy39h1b81ChxN3Mg2q-26" value="" style="endArrow=none;html=1;rounded=0;entryX=1;entryY=1;entryDx=0;entryDy=0;exitX=0;exitY=0.5;exitDx=0;exitDy=0;" edge="1" parent="1" source="NXqy39h1b81ChxN3Mg2q-22" target="NXqy39h1b81ChxN3Mg2q-20">
          <mxGeometry width="50" height="50" relative="1" as="geometry">
            <mxPoint x="-210" y="460" as="sourcePoint" />
            <mxPoint x="-160" y="410" as="targetPoint" />
          </mxGeometry>
        </mxCell>
        <mxCell id="NXqy39h1b81ChxN3Mg2q-27" value="" style="endArrow=none;html=1;rounded=0;entryX=1;entryY=1;entryDx=0;entryDy=0;exitX=0;exitY=0.5;exitDx=0;exitDy=0;" edge="1" parent="1" source="NXqy39h1b81ChxN3Mg2q-23" target="NXqy39h1b81ChxN3Mg2q-20">
          <mxGeometry width="50" height="50" relative="1" as="geometry">
            <mxPoint x="-210" y="460" as="sourcePoint" />
            <mxPoint x="-160" y="410" as="targetPoint" />
          </mxGeometry>
        </mxCell>
        <mxCell id="NXqy39h1b81ChxN3Mg2q-28" value="offered_in_sems" style="shape=rhombus;perimeter=rhombusPerimeter;whiteSpace=wrap;html=1;align=center;" vertex="1" parent="1">
          <mxGeometry x="-205" y="270" width="120" height="60" as="geometry" />
        </mxCell>
        <mxCell id="NXqy39h1b81ChxN3Mg2q-31" value="" style="fontSize=12;html=1;endArrow=ERoneToMany;rounded=0;entryX=0.5;entryY=1;entryDx=0;entryDy=0;exitX=0.5;exitY=0;exitDx=0;exitDy=0;" edge="1" parent="1" source="NXqy39h1b81ChxN3Mg2q-28" target="NXqy39h1b81ChxN3Mg2q-1">
          <mxGeometry width="100" height="100" relative="1" as="geometry">
            <mxPoint x="-150" y="230" as="sourcePoint" />
            <mxPoint x="-150" y="250" as="targetPoint" />
          </mxGeometry>
        </mxCell>
        <mxCell id="NXqy39h1b81ChxN3Mg2q-32" value="" style="fontSize=12;html=1;endArrow=ERoneToMany;rounded=0;entryX=0.5;entryY=0;entryDx=0;entryDy=0;exitX=0.5;exitY=1;exitDx=0;exitDy=0;" edge="1" parent="1" source="NXqy39h1b81ChxN3Mg2q-28" target="NXqy39h1b81ChxN3Mg2q-20">
          <mxGeometry width="100" height="100" relative="1" as="geometry">
            <mxPoint x="-320" y="380.00000000000006" as="sourcePoint" />
            <mxPoint x="-332.5" y="470" as="targetPoint" />
          </mxGeometry>
        </mxCell>
        <mxCell id="NXqy39h1b81ChxN3Mg2q-34" value="advisor" style="whiteSpace=wrap;html=1;align=center;" vertex="1" parent="1">
          <mxGeometry x="-745" y="400" width="110" height="50" as="geometry" />
        </mxCell>
        <mxCell id="NXqy39h1b81ChxN3Mg2q-35" value="&lt;u&gt;a_id&lt;/u&gt;" style="ellipse;whiteSpace=wrap;html=1;align=center;" vertex="1" parent="1">
          <mxGeometry x="-882.5" y="440" width="50" height="20" as="geometry" />
        </mxCell>
        <mxCell id="NXqy39h1b81ChxN3Mg2q-36" value="email" style="ellipse;whiteSpace=wrap;html=1;align=center;" vertex="1" parent="1">
          <mxGeometry x="-825" y="540" width="40" height="20" as="geometry" />
        </mxCell>
        <mxCell id="NXqy39h1b81ChxN3Mg2q-37" value="name" style="ellipse;whiteSpace=wrap;html=1;align=center;" vertex="1" parent="1">
          <mxGeometry x="-696.25" y="510" width="47.5" height="20" as="geometry" />
        </mxCell>
        <mxCell id="NXqy39h1b81ChxN3Mg2q-38" value="office_location" style="ellipse;whiteSpace=wrap;html=1;align=center;" vertex="1" parent="1">
          <mxGeometry x="-910" y="490" width="80" height="30" as="geometry" />
        </mxCell>
        <mxCell id="NXqy39h1b81ChxN3Mg2q-40" value="" style="endArrow=none;html=1;rounded=0;exitX=1;exitY=0.5;exitDx=0;exitDy=0;entryX=0;entryY=0.5;entryDx=0;entryDy=0;" edge="1" parent="1" source="NXqy39h1b81ChxN3Mg2q-35" target="NXqy39h1b81ChxN3Mg2q-34">
          <mxGeometry width="50" height="50" relative="1" as="geometry">
            <mxPoint x="-745" y="460" as="sourcePoint" />
            <mxPoint x="-695" y="410" as="targetPoint" />
          </mxGeometry>
        </mxCell>
        <mxCell id="NXqy39h1b81ChxN3Mg2q-41" value="" style="endArrow=none;html=1;rounded=0;entryX=0;entryY=1;entryDx=0;entryDy=0;exitX=0.393;exitY=0.033;exitDx=0;exitDy=0;exitPerimeter=0;" edge="1" parent="1" source="NXqy39h1b81ChxN3Mg2q-38" target="NXqy39h1b81ChxN3Mg2q-34">
          <mxGeometry width="50" height="50" relative="1" as="geometry">
            <mxPoint x="-750" y="490" as="sourcePoint" />
            <mxPoint x="-700" y="440" as="targetPoint" />
          </mxGeometry>
        </mxCell>
        <mxCell id="NXqy39h1b81ChxN3Mg2q-42" value="" style="endArrow=none;html=1;rounded=0;exitX=0.5;exitY=0;exitDx=0;exitDy=0;entryX=0;entryY=1;entryDx=0;entryDy=0;" edge="1" parent="1" source="NXqy39h1b81ChxN3Mg2q-36" target="NXqy39h1b81ChxN3Mg2q-34">
          <mxGeometry width="50" height="50" relative="1" as="geometry">
            <mxPoint x="-725" y="510" as="sourcePoint" />
            <mxPoint x="-700" y="450" as="targetPoint" />
          </mxGeometry>
        </mxCell>
        <mxCell id="NXqy39h1b81ChxN3Mg2q-43" value="" style="endArrow=none;html=1;rounded=0;exitX=0.5;exitY=0;exitDx=0;exitDy=0;entryX=0.25;entryY=1;entryDx=0;entryDy=0;" edge="1" parent="1" source="NXqy39h1b81ChxN3Mg2q-37" target="NXqy39h1b81ChxN3Mg2q-34">
          <mxGeometry width="50" height="50" relative="1" as="geometry">
            <mxPoint x="-675" y="510" as="sourcePoint" />
            <mxPoint x="-625" y="460" as="targetPoint" />
          </mxGeometry>
        </mxCell>
        <mxCell id="NXqy39h1b81ChxN3Mg2q-46" value="advise" style="shape=rhombus;perimeter=rhombusPerimeter;whiteSpace=wrap;html=1;align=center;" vertex="1" parent="1">
          <mxGeometry x="-725" y="300" width="70" height="30" as="geometry" />
        </mxCell>
        <mxCell id="NXqy39h1b81ChxN3Mg2q-49" value="" style="fontSize=12;html=1;endArrow=ERoneToMany;rounded=0;entryX=0.5;entryY=0;entryDx=0;entryDy=0;exitX=0.5;exitY=1;exitDx=0;exitDy=0;elbow=vertical;" edge="1" parent="1" source="NXqy39h1b81ChxN3Mg2q-46" target="NXqy39h1b81ChxN3Mg2q-34">
          <mxGeometry width="100" height="100" relative="1" as="geometry">
            <mxPoint x="-575" y="300" as="sourcePoint" />
            <mxPoint x="-585" y="435" as="targetPoint" />
          </mxGeometry>
        </mxCell>
        <mxCell id="NXqy39h1b81ChxN3Mg2q-51" value="status" style="ellipse;whiteSpace=wrap;html=1;align=center;" vertex="1" parent="1">
          <mxGeometry x="-822.5" y="65" width="60" height="20" as="geometry" />
        </mxCell>
        <mxCell id="NXqy39h1b81ChxN3Mg2q-52" value="" style="endArrow=none;html=1;rounded=0;entryX=0.5;entryY=1;entryDx=0;entryDy=0;exitX=0;exitY=0;exitDx=0;exitDy=0;" edge="1" parent="1" source="3sptjTlRXnZytQL2yX10-6" target="NXqy39h1b81ChxN3Mg2q-51">
          <mxGeometry width="50" height="50" relative="1" as="geometry">
            <mxPoint x="-450" y="240" as="sourcePoint" />
            <mxPoint x="-400" y="190" as="targetPoint" />
          </mxGeometry>
        </mxCell>
        <mxCell id="NXqy39h1b81ChxN3Mg2q-53" value="semester" style="ellipse;whiteSpace=wrap;html=1;align=center;" vertex="1" parent="1">
          <mxGeometry x="-787.5" y="320" width="55" height="30" as="geometry" />
        </mxCell>
        <mxCell id="NXqy39h1b81ChxN3Mg2q-54" value="" style="endArrow=none;html=1;rounded=0;exitX=1;exitY=0.5;exitDx=0;exitDy=0;entryX=0;entryY=0.5;entryDx=0;entryDy=0;" edge="1" parent="1" source="NXqy39h1b81ChxN3Mg2q-53" target="NXqy39h1b81ChxN3Mg2q-46">
          <mxGeometry width="50" height="50" relative="1" as="geometry">
            <mxPoint x="-450" y="360" as="sourcePoint" />
            <mxPoint x="-400" y="310" as="targetPoint" />
          </mxGeometry>
        </mxCell>
        <mxCell id="NXqy39h1b81ChxN3Mg2q-55" value="gpa" style="ellipse;whiteSpace=wrap;html=1;align=center;" vertex="1" parent="1">
          <mxGeometry x="-850" y="100" width="34.07" height="20" as="geometry" />
        </mxCell>
        <mxCell id="NXqy39h1b81ChxN3Mg2q-56" value="" style="endArrow=none;html=1;rounded=0;exitX=1;exitY=0.5;exitDx=0;exitDy=0;" edge="1" parent="1" source="NXqy39h1b81ChxN3Mg2q-55">
          <mxGeometry width="50" height="50" relative="1" as="geometry">
            <mxPoint x="-450" y="200" as="sourcePoint" />
            <mxPoint x="-720" y="120" as="targetPoint" />
          </mxGeometry>
        </mxCell>
      </root>
    </mxGraphModel>
  </diagram>
</mxfile>
